<svg width="30" height="30" viewBox="0 0 30 30" fill="none" xmlns="http://www.w3.org/2000/svg">
<path d="M14.9453 14.4923C14.1396 14.4923 13.3668 14.1722 12.797 13.6024C12.2273 13.0327 11.9072 12.2599 11.9072 11.4541C11.9072 10.6484 12.2273 9.87561 12.797 9.30584C13.3668 8.73608 14.1396 8.41599 14.9453 8.41599C15.7511 8.41599 16.5239 8.73608 17.0936 9.30584C17.6634 9.87561 17.9835 10.6484 17.9835 11.4541C17.9835 11.8531 17.9049 12.2482 17.7522 12.6168C17.5995 12.9854 17.3757 13.3203 17.0936 13.6024C16.8115 13.8846 16.4766 14.1084 16.108 14.261C15.7394 14.4137 15.3443 14.4923 14.9453 14.4923ZM14.9453 2.9473C12.6892 2.9473 10.5254 3.84355 8.93007 5.43889C7.33473 7.03424 6.43848 9.19799 6.43848 11.4541C6.43848 17.8343 14.9453 27.2526 14.9453 27.2526C14.9453 27.2526 23.4522 17.8343 23.4522 11.4541C23.4522 9.19799 22.5559 7.03424 20.9606 5.43889C19.3652 3.84355 17.2015 2.9473 14.9453 2.9473Z" fill="#F24822"/>
</svg>
