<svg width="36" height="36" viewBox="0 0 36 36" fill="none" xmlns="http://www.w3.org/2000/svg">
<path fill-rule="evenodd" clip-rule="evenodd" d="M3.92104 8.139C4.09135 7.72782 4.37978 7.37638 4.74984 7.12913C5.11991 6.88189 5.55498 6.74995 6.00004 6.75H21C23.9837 6.75 26.8452 7.93526 28.955 10.045C31.0648 12.1548 32.25 15.0163 32.25 18C32.25 20.9837 31.0648 23.8452 28.955 25.955C26.8452 28.0647 23.9837 29.25 21 29.25H7.50004C6.9033 29.25 6.33101 29.0129 5.90905 28.591C5.48709 28.169 5.25004 27.5967 5.25004 27C5.25004 26.4033 5.48709 25.831 5.90905 25.409C6.33101 24.9871 6.9033 24.75 7.50004 24.75H21C22.7903 24.75 24.5071 24.0388 25.773 22.773C27.0389 21.5071 27.75 19.7902 27.75 18C27.75 16.2098 27.0389 14.4929 25.773 13.227C24.5071 11.9612 22.7903 11.25 21 11.25H11.4315L12.8415 12.66C13.2512 13.0845 13.4777 13.653 13.4723 14.243C13.4669 14.8329 13.23 15.3971 12.8127 15.8141C12.3953 16.2311 11.8308 16.4674 11.2409 16.4723C10.651 16.4771 10.0827 16.2501 9.65854 15.84L4.40854 10.59C4.09412 10.2754 3.88 9.87465 3.79323 9.4384C3.70646 9.00216 3.75094 8.54998 3.92104 8.139Z" fill="black"/>
</svg>
