<svg width="24" height="25" viewBox="0 0 24 25" fill="none" xmlns="http://www.w3.org/2000/svg">
<path d="M13 6.125C13 5.85978 12.8946 5.60543 12.7071 5.41789C12.5196 5.23036 12.2652 5.125 12 5.125C11.7348 5.125 11.4804 5.23036 11.2929 5.41789C11.1054 5.60543 11 5.85978 11 6.125V11.125H6C5.73478 11.125 5.48043 11.2304 5.29289 11.4179C5.10536 11.6054 5 11.8598 5 12.125C5 12.3902 5.10536 12.6446 5.29289 12.8321C5.48043 13.0196 5.73478 13.125 6 13.125H11V18.125C11 18.3902 11.1054 18.6446 11.2929 18.8321C11.4804 19.0196 11.7348 19.125 12 19.125C12.2652 19.125 12.5196 19.0196 12.7071 18.8321C12.8946 18.6446 13 18.3902 13 18.125V13.125H18C18.2652 13.125 18.5196 13.0196 18.7071 12.8321C18.8946 12.6446 19 12.3902 19 12.125C19 11.8598 18.8946 11.6054 18.7071 11.4179C18.5196 11.2304 18.2652 11.125 18 11.125H13V6.125Z" fill="#B70612"/>
</svg>
